<?xml version="1.0" standalone="no"?>
<!DOCTYPE svg PUBLIC "-//W3C//DTD SVG 20010904//EN"
 "http://www.w3.org/TR/2001/REC-SVG-20010904/DTD/svg10.dtd">
<svg version="1.0" xmlns="http://www.w3.org/2000/svg"
 width="2000.000000pt" height="2000.000000pt" viewBox="0 0 2000.000000 2000.000000"
 preserveAspectRatio="xMidYMid meet">
<metadata>
Created by potrace 1.14, written by Peter Selinger 2001-2017
</metadata>
<g transform="translate(0.000000,2000.000000) scale(0.100000,-0.100000)"
fill="#000000" stroke="none">
<path d="M4629 17746 c-2 -3 -55 -7 -118 -11 -63 -4 -122 -8 -132 -10 -10 -2
-49 -7 -86 -10 -64 -7 -222 -50 -233 -64 -3 -3 -23 -15 -45 -26 -62 -31 -197
-171 -239 -247 -58 -105 -74 -161 -141 -483 -2 -11 -9 -45 -15 -75 -6 -30 -14
-66 -16 -80 -3 -14 -14 -63 -24 -110 -10 -47 -21 -100 -25 -117 -3 -18 -12
-61 -20 -95 -12 -55 -20 -94 -29 -146 -4 -21 -17 -29 -146 -82 -110 -46 -317
-147 -435 -213 -129 -71 -300 -186 -460 -308 -79 -60 -105 -74 -120 -68 -11 5
-180 60 -375 123 -195 63 -391 127 -435 141 -124 41 -209 54 -320 50 -159 -5
-300 -61 -413 -161 -95 -85 -323 -414 -472 -679 -77 -138 -198 -383 -249 -503
-90 -214 -75 -435 45 -634 39 -65 140 -172 278 -293 44 -39 90 -80 103 -92 23
-20 116 -103 213 -188 25 -22 47 -43 50 -46 3 -3 47 -43 98 -88 82 -73 92 -86
88 -110 -3 -14 -8 -48 -12 -76 -3 -27 -8 -58 -10 -68 -1 -9 -6 -56 -9 -105 -4
-48 -9 -100 -11 -117 -6 -34 -6 -407 0 -505 3 -63 12 -151 22 -235 3 -22 7
-59 10 -81 2 -23 7 -52 9 -65 5 -24 6 -23 -115 -129 -41 -36 -81 -72 -90 -80
-18 -17 -161 -145 -194 -173 -12 -10 -34 -31 -51 -46 -16 -15 -70 -62 -120
-106 -132 -116 -209 -195 -248 -256 -108 -169 -142 -379 -90 -558 17 -59 106
-260 176 -396 107 -211 322 -566 411 -680 109 -141 139 -176 182 -211 155
-128 370 -180 570 -138 66 13 413 124 849 270 l129 43 61 -47 c33 -25 65 -50
70 -54 197 -155 532 -353 775 -458 41 -18 93 -40 115 -50 22 -10 51 -21 65
-25 38 -11 49 -24 56 -64 3 -20 10 -49 14 -66 5 -16 11 -43 13 -60 4 -26 12
-64 42 -200 3 -11 9 -42 15 -70 5 -27 11 -59 14 -70 2 -11 20 -99 40 -195 43
-206 66 -301 76 -315 4 -5 14 -29 23 -51 51 -132 184 -269 324 -334 116 -54
171 -63 518 -87 196 -13 613 -7 800 11 178 18 224 26 290 48 184 64 339 221
412 418 12 31 24 69 26 85 3 17 13 62 22 100 9 39 18 81 20 95 3 14 8 36 11
50 3 14 8 36 10 50 3 14 18 86 34 160 16 74 31 146 33 160 5 27 54 262 62 297
3 14 19 26 47 36 65 22 273 115 358 160 41 22 93 49 114 60 139 69 386 234
591 395 6 4 15 11 21 14 6 4 82 -17 170 -46 496 -166 746 -247 801 -260 81
-18 248 -14 333 8 143 39 273 130 372 261 238 317 545 862 639 1135 56 159 38
354 -46 519 -42 84 -114 167 -237 277 -139 123 -181 160 -212 189 -12 11 -60
54 -106 95 -47 41 -87 77 -90 80 -3 3 -38 35 -79 70 -41 36 -88 78 -104 93
-31 30 -31 26 -12 152 36 239 42 773 11 965 -4 26 -14 105 -22 176 -5 38 -2
43 38 80 118 106 206 185 229 204 13 12 56 50 94 85 39 34 84 74 100 88 17 14
50 44 75 67 25 23 68 61 95 83 112 92 182 175 229 270 55 110 78 210 75 324
-3 133 -35 226 -178 511 -84 168 -90 179 -188 347 -87 149 -87 149 -93 155 -3
3 -21 30 -40 60 -19 30 -53 80 -75 112 -22 31 -47 66 -55 78 -134 198 -267
290 -483 335 -46 9 -180 7 -244 -4 -32 -6 -266 -80 -521 -164 l-462 -153 -53
40 c-28 21 -64 48 -78 60 -14 12 -36 28 -49 36 -12 8 -45 32 -73 53 -84 62
-303 195 -432 263 -101 52 -231 112 -415 190 -37 16 -40 23 -76 209 -9 46 -68
326 -100 470 -2 11 -6 31 -9 45 -3 14 -7 36 -10 50 -3 14 -8 39 -10 55 -13 70
-56 218 -76 257 -58 117 -144 216 -244 284 -64 44 -186 91 -256 99 -30 4 -65
9 -79 11 -14 2 -54 6 -90 10 -36 3 -78 8 -95 11 -36 6 -671 14 -676 9z m501
-3761 c322 -54 602 -196 826 -419 108 -108 144 -152 212 -255 91 -140 186
-374 208 -511 2 -14 6 -35 9 -46 18 -82 24 -293 12 -417 -27 -266 -151 -567
-317 -772 -31 -38 -218 -224 -251 -249 -107 -82 -252 -163 -374 -211 -126 -48
-186 -65 -280 -80 -16 -3 -57 -9 -90 -14 -101 -16 -347 -6 -468 18 -168 34
-361 108 -485 187 -29 19 -56 34 -61 34 -5 0 -11 3 -13 8 -1 4 -21 20 -43 37
-72 53 -89 69 -180 160 -153 155 -276 351 -347 555 -19 54 -56 208 -63 260 -4
30 -9 66 -12 80 -6 40 -5 254 2 312 74 636 531 1152 1150 1298 44 10 107 22
140 25 33 4 62 9 64 11 6 5 321 -4 361 -11z"/>
<path d="M12607 11885 c-1 -2 -31 -5 -67 -8 -88 -8 -149 -28 -299 -97 -489
-224 -989 -545 -1129 -725 -39 -50 -89 -166 -107 -245 -15 -69 -21 -217 -11
-265 17 -80 36 -143 122 -400 52 -159 97 -294 98 -300 2 -5 6 -17 9 -25 3 -8
25 -75 49 -148 29 -92 40 -137 33 -146 -6 -7 -49 -64 -96 -127 -92 -122 -218
-310 -265 -397 -16 -29 -42 -77 -58 -105 -72 -131 -216 -446 -216 -475 0 -14
1 -14 -280 -72 -317 -66 -339 -71 -375 -76 -16 -3 -46 -9 -65 -14 -19 -5 -48
-12 -65 -14 -30 -6 -156 -33 -185 -41 -202 -52 -393 -222 -463 -412 -30 -82
-34 -99 -42 -183 -4 -36 -8 -76 -11 -90 -25 -158 -25 -883 1 -1041 2 -13 6
-49 9 -79 17 -165 75 -293 182 -404 112 -117 237 -180 439 -221 44 -9 89 -19
100 -21 11 -2 36 -7 55 -10 19 -3 38 -8 41 -10 3 -2 19 -6 35 -8 16 -3 40 -8
54 -11 14 -4 39 -9 55 -11 17 -3 71 -14 120 -25 50 -11 110 -24 135 -29 25 -5
54 -11 65 -14 11 -2 56 -11 100 -21 44 -9 82 -19 85 -23 3 -4 35 -74 70 -157
133 -314 301 -601 503 -863 67 -88 78 -107 73 -130 -6 -25 -219 -677 -233
-712 -3 -8 -7 -19 -9 -25 -1 -5 -12 -38 -23 -73 -44 -135 -53 -182 -53 -282 1
-231 104 -431 287 -557 22 -16 42 -31 45 -34 3 -3 34 -25 70 -49 36 -24 67
-46 70 -50 5 -5 171 -112 212 -135 10 -5 75 -43 145 -83 140 -81 450 -235 553
-275 89 -35 159 -46 265 -42 133 5 242 41 360 119 77 52 124 99 320 321 44 50
84 95 90 101 5 6 39 43 75 84 36 40 70 78 75 84 6 6 53 58 104 116 66 74 100
105 115 104 27 -1 128 -14 153 -18 19 -4 96 -11 223 -22 90 -7 429 -7 520 0
81 6 180 16 220 21 14 2 48 6 75 10 28 3 61 8 75 10 21 4 41 -15 140 -126 63
-71 122 -138 130 -147 9 -9 49 -55 90 -102 41 -47 82 -92 90 -101 8 -8 42 -46
75 -83 33 -37 69 -78 80 -90 11 -11 33 -38 49 -59 72 -97 262 -201 406 -223
172 -27 279 -1 565 136 284 136 555 297 805 476 173 124 229 183 289 303 60
119 83 297 57 441 -7 39 -263 831 -302 933 -17 45 -22 34 76 162 204 266 392
592 517 899 25 61 47 112 48 114 2 3 158 37 263 58 12 2 98 20 190 40 92 20
176 37 187 40 19 4 42 8 95 20 14 3 34 7 45 8 11 2 40 8 65 14 25 6 58 13 73
16 74 13 195 66 272 119 52 36 149 141 184 200 64 109 80 169 106 407 24 222
24 732 1 965 -2 17 -6 62 -10 100 -20 198 -89 342 -222 464 -112 102 -236 156
-454 197 -14 3 -41 9 -60 14 -19 5 -46 11 -60 13 -21 4 -75 15 -250 52 -15 3
-246 53 -285 61 -11 3 -47 10 -80 17 l-60 13 -43 104 c-133 327 -353 705 -559
961 l-53 66 61 189 c34 104 65 198 69 209 22 51 171 517 184 575 19 83 14 255
-9 329 -58 189 -134 281 -359 440 -239 168 -437 287 -685 411 -265 132 -352
167 -466 186 -31 6 -156 4 -190 -2 -137 -23 -275 -93 -386 -195 -22 -21 -138
-149 -224 -248 -17 -19 -53 -59 -81 -90 -28 -31 -66 -74 -85 -96 -19 -22 -39
-44 -45 -50 -10 -8 -79 -86 -208 -232 -10 -12 -22 -21 -25 -19 -3 2 -31 7 -61
10 -30 4 -66 9 -80 11 -28 4 -100 12 -205 21 -224 19 -700 2 -887 -32 -62 -11
-61 -12 -81 11 -10 11 -34 37 -54 58 -19 21 -73 81 -121 135 -47 53 -100 112
-117 131 -16 19 -37 42 -45 51 -8 9 -46 52 -84 96 -39 43 -75 84 -80 89 -6 6
-42 45 -80 88 -142 160 -287 238 -490 266 -31 4 -57 7 -59 6z m2009 -3398 c12
-3 39 -8 60 -11 21 -4 66 -13 99 -22 483 -122 886 -493 1048 -964 93 -267 107
-576 41 -845 -69 -279 -217 -532 -428 -732 -180 -171 -373 -280 -641 -363
-121 -37 -438 -60 -565 -40 -30 5 -73 11 -95 15 -117 18 -316 88 -433 152
-194 105 -397 282 -513 448 -150 212 -252 480 -274 718 -7 73 -7 262 0 327 11
95 46 241 82 340 30 85 134 297 152 310 3 3 24 32 46 65 22 32 85 105 140 161
248 251 543 399 880 440 28 4 52 8 54 10 5 5 322 -3 347 -9z"/>
</g>
</svg>
